<?xml version="1.0" standalone="no"?>
<!DOCTYPE svg PUBLIC "-//W3C//DTD SVG 20010904//EN"
 "http://www.w3.org/TR/2001/REC-SVG-20010904/DTD/svg10.dtd">
<svg version="1.0" xmlns="http://www.w3.org/2000/svg"
 width="512.000000pt" height="512.000000pt" viewBox="0 0 512.000000 512.000000"
 preserveAspectRatio="xMidYMid meet">

<g transform="translate(0.000000,512.000000) scale(0.100000,-0.100000)"
fill="#000000" stroke="none">
<path d="M2580 4689 c-25 -5 -65 -12 -89 -15 -45 -7 -183 -74 -259 -126 -84
-58 -192 -189 -240 -291 -43 -92 -72 -224 -72 -329 0 -156 57 -331 143 -445
55 -72 171 -180 219 -205 105 -54 214 -98 242 -98 18 0 59 -5 91 -11 73 -13
235 4 310 33 123 48 200 95 278 167 115 109 177 208 218 347 31 103 33 289 6
407 -35 148 -137 306 -263 405 -63 49 -224 132 -279 144 -147 30 -217 34 -305
17z"/>
<path d="M3390 4615 c0 -8 8 -19 18 -24 10 -5 31 -29 47 -53 16 -24 37 -52 46
-63 30 -34 110 -203 131 -279 18 -60 21 -101 22 -266 1 -227 -10 -281 -95
-441 -10 -20 -25 -48 -32 -61 -30 -59 -112 -161 -174 -218 -166 -153 -330
-228 -558 -256 -88 -10 -133 -12 -174 -4 -30 5 -70 10 -89 10 -33 0 -196 45
-217 60 -5 4 -22 10 -36 13 -44 11 -211 130 -285 202 -64 65 -131 154 -161
215 -7 14 -17 32 -22 40 -10 16 -30 62 -55 125 -9 22 -17 59 -18 83 -1 24 -5
45 -10 48 -4 3 -32 -46 -62 -108 -90 -189 -212 -443 -316 -653 -54 -110 -141
-290 -195 -400 -53 -110 -128 -263 -167 -340 -80 -160 -70 -139 -135 -275 -28
-58 -90 -186 -138 -285 -48 -99 -105 -216 -127 -260 -21 -44 -52 -105 -68
-135 -16 -30 -29 -62 -29 -71 -1 -9 -8 -22 -16 -29 -8 -7 -15 -20 -15 -30 0
-10 -7 -23 -15 -30 -8 -7 -15 -18 -15 -24 0 -11 -33 -80 -67 -141 -7 -11 -59
-117 -117 -235 -73 -148 -102 -218 -95 -225 7 -7 261 -10 773 -10 655 0 765 2
781 15 9 8 28 39 42 70 13 30 34 73 46 95 30 57 43 84 63 130 15 37 116 243
141 290 6 11 39 79 73 150 65 139 80 168 97 200 7 11 40 81 76 155 69 145 113
236 127 260 4 8 19 40 34 70 14 30 36 75 49 100 29 54 151 305 166 340 6 14
15 32 21 40 5 8 30 58 54 110 63 133 74 145 122 137 163 -28 219 -50 372 -151
44 -29 192 -172 192 -187 0 -4 16 -31 35 -60 19 -30 35 -57 35 -62 0 -5 6 -23
14 -40 8 -18 19 -52 25 -77 5 -25 15 -65 21 -90 24 -91 3 -297 -46 -464 -37
-125 -199 -327 -324 -403 -99 -60 -276 -133 -325 -133 -11 0 -32 -6 -46 -14
-14 -7 -53 -16 -87 -20 -34 -4 -75 -12 -91 -17 -16 -6 -119 -13 -228 -17
l-198 -7 -89 -180 c-116 -236 -110 -224 -102 -232 4 -5 411 -8 904 -8 973 0
940 -1 1152 57 379 103 653 340 786 678 10 25 26 64 36 87 10 23 18 55 18 70
0 16 5 34 10 39 32 32 35 550 4 639 -7 22 -14 49 -14 60 0 11 -7 34 -16 50 -8
17 -29 64 -45 107 -61 157 -244 383 -378 465 -14 9 -35 25 -46 34 -28 24 -271
143 -321 157 -22 7 -51 23 -64 37 l-23 25 34 15 c143 65 359 248 463 393 48
66 101 169 126 244 26 75 50 227 49 308 0 93 -47 335 -70 365 -4 6 -26 46 -50
90 -23 44 -45 82 -50 85 -4 3 -21 25 -37 49 -58 86 -24 81 -569 81 -418 0
-483 -2 -483 -15z"/>
</g>
</svg>
