<svg xmlns="http://www.w3.org/2000/svg" width="400" height="400" viewBox="0 0 400 400">
  <rect width="400" height="400" fill="white"/>
  <g fill="none" stroke="#0e6f5c" stroke-width="1.2" opacity="0.08">
    <circle cx="60" cy="60" r="25"/>
    <rect x="130" y="40" width="40" height="30" rx="4"/>
    <path d="M230 50 l20 0 l0 20 l-20 0 Z M240 70 l10 15"/>
    <path d="M320 60 l20 0 l0 20 l-20 0 Z M330 80 l10 15"/>
    <path d="M80 180 l40 -30 l40 30 l-40 30 Z"/>
    <circle cx="300" cy="160" r="20"/>
    <path d="M40 300 h60 v20 h-60 Z M70 320 v20 M55 340 h30"/>
    <rect x="150" y="280" width="100" height="60" rx="10"/>
    <path d="M190 290 v40 M210 290 v40"/>
    <path d="M300 280 h60 v40 h-60 Z M310 300 h40"/>
  </g>
</svg>
